<svg version="1.1" xmlns="http://www.w3.org/2000/svg" viewBox="0 0 1249.0110560825892 783.7801906040736" width="1249.0110560825892" height="783.7801906040736">
  <!-- svg-source:excalidraw -->
  
  <defs>
    <style class="style-fonts">
      @font-face {
        font-family: "Virgil";
        src: url("https://excalidraw.com/Virgil.woff2");
      }
      @font-face {
        font-family: "Cascadia";
        src: url("https://excalidraw.com/Cascadia.woff2");
      }
    </style>
    
  </defs>
  <g stroke-linecap="round" transform="translate(10 10.000000000000028) rotate(0 614.5055280412946 381.8900953020368)"><path d="M32.76 -0.68 L1195.2 -0.89 L1202.78 -1.07 L1217.07 5.3 L1224.58 12.66 L1228.48 16.65 L1230.36 32.36 L1227.51 732.85 L1228.66 737.29 L1224.68 750.89 L1217.9 758.5 L1212.83 762.71 L1197.89 765.01 L33.69 762.61 L25.79 763.67 L13.4 757.52 L4.66 751.46 L1.42 744.98 L1.93 730.99 L0.13 32.87 L3.89 17.22 L8.76 9.55 L16.21 3.06 L33.91 -1.34" stroke="none" stroke-width="0" fill="#ffffff"></path><path d="M32 0 M32 0 C378.53 1.75, 724.97 1.6, 1197.01 0 M1197.01 0 C1217.83 -1.78, 1230.01 12.45, 1229.01 32 M1229.01 32 C1228.21 300.55, 1227.39 567.52, 1229.01 731.78 M1229.01 731.78 C1227.27 752.26, 1218.11 764.07, 1197.01 763.78 M1197.01 763.78 C823.06 766.08, 447.16 765.91, 32 763.78 M32 763.78 C10.47 764.08, 0.74 752.4, 0 731.78 M0 731.78 C-0.42 510.04, 0.13 289.11, 0 32 M0 32 C1.36 10.11, 8.9 1.6, 32 0" stroke="transparent" stroke-width="1.5" fill="none" stroke-dasharray="8 9"></path></g><g stroke-linecap="round" transform="translate(593.8166536603653 31.262552244322706) rotate(0 86.40000915527344 86.40000915527344)"><path d="M89.27 -0.39 C100.61 -1.52, 113.61 4.51, 123.84 9.81 C134.07 15.12, 143.06 22.7, 150.63 31.44 C158.2 40.18, 165.62 51.3, 169.25 62.24 C172.89 73.18, 173.7 85.49, 172.42 97.07 C171.15 108.64, 167.97 121.42, 161.61 131.7 C155.25 141.98, 144.1 152.1, 134.24 158.75 C124.39 165.4, 113.59 169.39, 102.5 171.61 C91.4 173.83, 79.02 175.07, 67.65 172.08 C56.28 169.08, 43.51 160.93, 34.27 153.63 C25.03 146.34, 18.12 138.4, 12.2 128.31 C6.28 118.23, -0.06 105.16, -1.23 93.12 C-2.4 81.09, 1.09 67.26, 5.19 56.09 C9.28 44.93, 15.36 34.34, 23.36 26.13 C31.36 17.92, 37.45 10.58, 53.17 6.82 C68.89 3.05, 103.66 1.36, 117.7 3.54 C131.74 5.73, 138.5 18.61, 137.41 19.93 M159.54 39.59 C167.43 48.16, 170.63 58.91, 172.82 70.41 C175.01 81.91, 175.42 97.32, 172.66 108.57 C169.91 119.81, 164.14 128.76, 156.3 137.87 C148.45 146.97, 136.49 157.15, 125.58 163.2 C114.67 169.25, 102.38 173.29, 90.85 174.18 C79.33 175.07, 66.59 172.38, 56.44 168.54 C46.28 164.7, 38.09 159.14, 29.92 151.13 C21.74 143.12, 12.23 131.52, 7.39 120.48 C2.54 109.44, 1.09 96.93, 0.84 84.89 C0.59 72.86, 1.05 59.13, 5.89 48.28 C10.73 37.44, 20.78 26.94, 29.86 19.8 C38.93 12.66, 48.62 8.75, 60.35 5.45 C72.07 2.14, 88.47 -1.62, 100.21 -0.04 C111.95 1.54, 120.94 9.02, 130.8 14.93 C140.65 20.85, 155.31 31.11, 159.34 35.45 C163.38 39.78, 156.2 39.96, 155.02 40.94" stroke="none" stroke-width="0" fill="#2f9e44"></path><path d="M103.76 1.77 C114.72 3.2, 128.41 11.44, 138.12 18.3 C147.84 25.17, 156.34 32.89, 162.06 42.95 C167.78 53.01, 171.69 66.67, 172.44 78.66 C173.18 90.64, 170.36 104.07, 166.53 114.87 C162.7 125.67, 157.01 134.84, 149.45 143.48 C141.9 152.12, 131.58 161.81, 121.19 166.74 C110.81 171.67, 99.28 173.43, 87.13 173.07 C74.99 172.7, 59.59 169.39, 48.34 164.55 C37.09 159.7, 27.08 152.49, 19.62 144 C12.16 135.52, 6.69 124.76, 3.58 113.63 C0.47 102.51, -0.65 89.16, 0.94 77.25 C2.52 65.35, 7.05 52.23, 13.07 42.23 C19.09 32.23, 27.72 23.92, 37.08 17.27 C46.45 10.61, 56.44 4.32, 69.26 2.3 C82.08 0.28, 105.05 3.59, 114.02 5.15 C122.98 6.71, 123.73 10.53, 123.05 11.66 M159.85 41.44 C167.94 49.93, 172.43 58.34, 174.24 69.31 C176.04 80.29, 174.02 95.54, 170.68 107.28 C167.33 119.02, 161.97 130.17, 154.16 139.76 C146.36 149.35, 134.73 159.81, 123.83 164.81 C112.92 169.8, 100.47 169.46, 88.73 169.75 C76.98 170.04, 63.66 170.05, 53.37 166.57 C43.07 163.08, 34.41 156.56, 26.95 148.85 C19.5 141.15, 12.64 131.64, 8.65 120.34 C4.65 109.04, 2.49 92.93, 2.98 81.04 C3.46 69.15, 6.85 58.85, 11.56 48.99 C16.26 39.14, 22.38 29.27, 31.22 21.91 C40.06 14.56, 52.95 8.16, 64.61 4.85 C76.26 1.53, 89.53 0.32, 101.15 2.01 C112.76 3.7, 124.34 8.43, 134.32 14.98 C144.3 21.53, 157.69 36.95, 161.05 41.31 C164.4 45.67, 155.78 40.28, 154.43 41.14" stroke="#e03131" stroke-width="1" fill="none"></path></g><g transform="translate(637.7547334943497 112.30868337835591) rotate(0 39.059974670410156 12.5)"><text x="0" y="0" font-family="Virgil, Segoe UI Emoji" font-size="20px" fill="#ffffff" text-anchor="start" style="white-space: pre;" direction="ltr" dominant-baseline="text-before-edge">OPENAI</text></g><g stroke-linecap="round" transform="translate(544.339770725795 513.4779834577016) rotate(0 124.80001831054688 56.12309265136719)"><path d="M24.94 0.9 L223.59 -0.74 L230.18 0.98 L245.53 13.08 L249.6 18.82 L249.58 84.28 L244.54 97.64 L238.01 104.99 L223.12 114.07 L32.02 112.8 L12.22 109.96 L3.52 106.67 L-0.1 94.21 L1.09 23.73 L8.74 7.22 L16.69 4.74 L27.26 1.33" stroke="none" stroke-width="0" fill="#ffec99"></path><path d="M28.06 0 M28.06 0 C83.2 -4.46, 129.25 3.27, 221.54 0 M28.06 0 C71.27 0.01, 109.01 -1.29, 221.54 0 M221.54 0 C239.1 0.29, 248.91 6.19, 249.6 28.06 M221.54 0 C242.88 -4.35, 245.16 5.26, 249.6 28.06 M249.6 28.06 C253.62 46.72, 253.9 57.07, 249.6 84.18 M249.6 28.06 C251.57 50.23, 251.22 72.06, 249.6 84.18 M249.6 84.18 C250.99 104.76, 242.09 115.63, 221.54 112.25 M249.6 84.18 C253.44 98.85, 242.37 114.8, 221.54 112.25 M221.54 112.25 C144.87 111.84, 71.91 114.88, 28.06 112.25 M221.54 112.25 C166.22 116.64, 113.51 115.93, 28.06 112.25 M28.06 112.25 C9.99 111.7, 2.73 103.78, 0 84.18 M28.06 112.25 C6.2 115.32, 0.04 103.63, 0 84.18 M0 84.18 C-3.93 67.42, -0.12 41.33, 0 28.06 M0 84.18 C-0.33 67.41, -0.05 52.84, 0 28.06 M0 28.06 C3.62 6.07, 5.64 -0.66, 28.06 0 M0 28.06 C-4.15 5.18, 13.8 -2.16, 28.06 0" stroke="#f08c00" stroke-width="1" fill="none"></path></g><g stroke-linecap="round" transform="translate(984.8313936505997 399.3856220075063) rotate(0 78.64617919921875 112.98462677001953)"><path d="M31.26 -3.64 L132.02 0.37 L146.92 4.94 L150.13 12.47 L157.39 28.7 L158.47 193.34 L151.99 209.55 L146.61 225.43 L125.85 222.41 L31.47 222.47 L19.44 223.43 L7.94 214.12 L2.25 195.7 L0.71 25.41 L10.98 7.2 L19.33 0.67 L32.79 0.71" stroke="none" stroke-width="0" fill="#1971c2"></path><path d="M32 0 M32 0 C72.11 -2.46, 101.01 2.75, 125.29 0 M32 0 C68.62 1.25, 104.5 1.48, 125.29 0 M125.29 0 C143.47 2.29, 153.51 6.81, 157.29 32 M125.29 0 C142.53 -1.11, 159.12 12.05, 157.29 32 M157.29 32 C157.89 98.28, 161.52 157.68, 157.29 193.97 M157.29 32 C159.82 93.45, 159.51 154.42, 157.29 193.97 M157.29 193.97 C160.67 218.65, 143.11 227.81, 125.29 225.97 M157.29 193.97 C159.85 219.75, 145.42 226.83, 125.29 225.97 M125.29 225.97 C99 226.96, 70 230.87, 32 225.97 M125.29 225.97 C103.83 226.39, 80.68 227.43, 32 225.97 M32 225.97 C11.55 223.22, 2.68 215.33, 0 193.97 M32 225.97 C11.41 228.48, 3.65 215.75, 0 193.97 M0 193.97 C-5.59 156.91, -1.85 117.86, 0 32 M0 193.97 C1.8 148.27, 0.04 97.1, 0 32 M0 32 C-0.66 7.06, 7.03 3.86, 32 0 M0 32 C-2.16 9.15, 13.85 3.58, 32 0" stroke="#1971c2" stroke-width="1" fill="none"></path></g><g transform="translate(1026.1856416974747 496.86244390692036) rotate(0 35.139976501464844 12.5)"><text x="0" y="0" font-family="Virgil, Segoe UI Emoji" font-size="20px" fill="#ffffff" text-anchor="start" style="white-space: pre;" direction="ltr" dominant-baseline="text-before-edge">GridDB</text></g><g stroke-linecap="round"><g transform="translate(812.4009279523576 548.5873637104232) rotate(0 78.82425171872131 -0.465315163989942)"><path d="M0.69 0.88 C11.85 1.13, 41.35 1.41, 67.58 0.91 C93.8 0.41, 142.86 -1.61, 158.05 -2.12 M-0.4 0.29 C10.54 0.28, 40.32 -0.54, 66.63 -0.72 C92.95 -0.89, 142.62 -0.72, 157.49 -0.78" stroke="#1e1e1e" stroke-width="1" fill="none"></path></g><g transform="translate(812.4009279523576 548.5873637104232) rotate(0 78.82425171872131 -0.465315163989942)"><path d="M130.76 9.5 C140.85 6.36, 149.26 3.85, 157.48 0 M128.87 10.34 C139.62 5.63, 151.45 0.9, 157.64 0.14" stroke="#1e1e1e" stroke-width="1" fill="none"></path></g><g transform="translate(812.4009279523576 548.5873637104232) rotate(0 78.82425171872131 -0.465315163989942)"><path d="M130.76 -11.02 C140.74 -6.94, 149.15 -2.23, 157.48 0 M128.86 -10.18 C139.73 -7.12, 151.57 -4.07, 157.64 0.14" stroke="#1e1e1e" stroke-width="1" fill="none"></path></g></g><mask></mask><g stroke-linecap="round"><g transform="translate(968.7700228009903 578.3663416430948) rotate(0 -80.51583025827983 1.3933600870793725)"><path d="M-0.06 0.4 C-12.33 0.54, -47.74 1.25, -74.55 1.62 C-101.37 1.99, -146.58 2.4, -160.97 2.62 M-1.55 -0.43 C-13.88 -0.69, -49.21 -0.62, -75.39 0.01 C-101.57 0.64, -144.35 2.75, -158.65 3.36" stroke="#1e1e1e" stroke-width="1" fill="none"></path></g><g transform="translate(968.7700228009903 578.3663416430948) rotate(0 -80.51583025827983 1.3933600870793725)"><path d="M-130.28 -7.81 C-135.34 -7.46, -144.91 -4.81, -159.93 2.41 M-130.88 -7.68 C-142.29 -4.5, -150.85 1.34, -158.98 3.11" stroke="#1e1e1e" stroke-width="1" fill="none"></path></g><g transform="translate(968.7700228009903 578.3663416430948) rotate(0 -80.51583025827983 1.3933600870793725)"><path d="M-129.35 12.7 C-134.76 8.53, -144.53 6.67, -159.93 2.41 M-129.95 12.82 C-141.62 8.35, -150.52 6.55, -158.98 3.11" stroke="#1e1e1e" stroke-width="1" fill="none"></path></g></g><mask></mask><g transform="translate(611.170077732631 552.2470569440297) rotate(0 34.5899658203125 12.5)"><text x="0" y="0" font-family="Virgil, Segoe UI Emoji" font-size="20px" fill="#1e1e1e" text-anchor="start" style="white-space: pre;" direction="ltr" dominant-baseline="text-before-edge">Node.js</text></g><g stroke-linecap="round"><g transform="translate(668.7635407023274 503.1394214459829) rotate(0 2.41944763041505 -142.9896262862472)"><path d="M-0.47 0.39 C0.31 -47.44, 4.41 -238.75, 5.31 -286.37 M1.48 -0.45 C2.13 -48.12, 4.32 -237.02, 4.82 -284.8" stroke="#1e1e1e" stroke-width="1" fill="none"></path></g><g transform="translate(668.7635407023274 503.1394214459829) rotate(0 2.41944763041505 -142.9896262862472)"><path d="M15.42 -255.05 C11.26 -265.59, 9.49 -277.63, 6.8 -285.19 M14.74 -257.31 C11.78 -267.65, 6.92 -276.59, 5.25 -285.12" stroke="#1e1e1e" stroke-width="1" fill="none"></path></g><g transform="translate(668.7635407023274 503.1394214459829) rotate(0 2.41944763041505 -142.9896262862472)"><path d="M-5.1 -255.27 C-2.08 -265.66, 3.33 -277.62, 6.8 -285.19 M-5.78 -257.53 C-1.09 -267.86, 1.7 -276.72, 5.25 -285.12" stroke="#1e1e1e" stroke-width="1" fill="none"></path></g></g><mask></mask><g stroke-linecap="round"><g transform="translate(696.1657842907559 222.84180463844837) rotate(0 -0.05318278383924735 141.74174821347705)"><path d="M-0.91 -0.58 C-0.86 46.9, 0.26 236.8, 0.44 284.06 M0.81 1.73 C0.67 48.95, -0.38 235.29, -0.66 282.37" stroke="#1e1e1e" stroke-width="1" fill="none"></path></g><g transform="translate(696.1657842907559 222.84180463844837) rotate(0 -0.05318278383924735 141.74174821347705)"><path d="M-11.73 253.63 C-6.47 262.02, -5.08 271.3, -0.47 283.38 M-11.06 254.02 C-6.3 263.83, -2.7 274.48, -1.47 281.49" stroke="#1e1e1e" stroke-width="1" fill="none"></path></g><g transform="translate(696.1657842907559 222.84180463844837) rotate(0 -0.05318278383924735 141.74174821347705)"><path d="M8.79 253.74 C7.69 261.95, 2.7 271.19, -0.47 283.38 M9.46 254.14 C6.96 263.78, 3.31 274.39, -1.47 281.49" stroke="#1e1e1e" stroke-width="1" fill="none"></path></g></g><mask></mask><g stroke-linecap="round" transform="translate(164.13930075509188 333.3393573590688) rotate(0 120.5 58.5)"><path d="M29.12 2.12 L212.19 -2.66 L229.55 4.21 L233.58 12.6 L239.92 19.09 L242.59 89.57 L240.85 106.13 L226.01 112.35 L208.26 118.44 L28.71 120.44 L12.07 115.14 L5.84 105.78 L1.36 97.59 L-0.34 23.72 L2.79 12.21 L12.13 7.62 L25.47 -2.08" stroke="none" stroke-width="0" fill="#a5d8ff"></path><path d="M29.25 0 M29.25 0 C103.8 6.54, 178.26 -0.89, 211.75 0 M29.25 0 C87.65 -1.84, 147.87 -2.15, 211.75 0 M211.75 0 C227.39 -3.56, 240.04 11.34, 241 29.25 M211.75 0 C232.64 4.11, 244.65 14.18, 241 29.25 M241 29.25 C241.53 46.92, 243.53 60.9, 241 87.75 M241 29.25 C242.33 52.13, 243.08 69.86, 241 87.75 M241 87.75 C242.84 109.47, 235.12 115.95, 211.75 117 M241 87.75 C241.86 107.35, 229.95 121.48, 211.75 117 M211.75 117 C151.4 115.51, 87.69 118.22, 29.25 117 M211.75 117 C151.94 116.95, 88.02 117.84, 29.25 117 M29.25 117 C9.78 117.64, 2.19 110.42, 0 87.75 M29.25 117 C10.2 113.5, 3.61 108.14, 0 87.75 M0 87.75 C-3.34 74.39, -1.85 61.85, 0 29.25 M0 87.75 C-2.92 69.55, -2.86 50.19, 0 29.25 M0 29.25 C3.86 7.87, 8.43 2.76, 29.25 0 M0 29.25 C3.58 12.07, 9.76 3.36, 29.25 0" stroke="#1e1e1e" stroke-width="1" fill="none"></path></g><g transform="translate(171.55938284737704 366.8393573590688) rotate(0 113.07991790771484 25)"><text x="113.07991790771484" y="0" font-family="Virgil, Segoe UI Emoji" font-size="20px" fill="#1e1e1e" text-anchor="middle" style="white-space: pre;" direction="ltr" dominant-baseline="text-before-edge">OpenAI Tokens Usage </text><text x="113.07991790771484" y="25" font-family="Virgil, Segoe UI Emoji" font-size="20px" fill="#1e1e1e" text-anchor="middle" style="white-space: pre;" direction="ltr" dominant-baseline="text-before-edge">Dashboard</text></g><g stroke-linecap="round"><g transform="translate(538.4313539777481 553.4415456933162) rotate(0 -124.43169209510245 -46.17702807580329)"><path d="M1 1.05 C-36.16 -0.88, -180.67 4.62, -222.08 -10.83 C-263.49 -26.28, -243.37 -77.93, -247.47 -91.64 M0.06 0.56 C-37.31 -1.32, -181.51 5.86, -222.93 -9.8 C-264.35 -25.46, -244.58 -79.68, -248.47 -93.41" stroke="#1e1e1e" stroke-width="1" fill="none"></path></g><g transform="translate(538.4313539777481 553.4415456933162) rotate(0 -124.43169209510245 -46.17702807580329)"><path d="M-237.26 -64.61 C-244.31 -76.19, -244.4 -85.43, -249.03 -91.76 M-238.51 -64.61 C-241.6 -70.36, -243.49 -78.06, -249.08 -94" stroke="#1e1e1e" stroke-width="1" fill="none"></path></g><g transform="translate(538.4313539777481 553.4415456933162) rotate(0 -124.43169209510245 -46.17702807580329)"><path d="M-257.77 -65.19 C-257.18 -76.72, -249.64 -85.75, -249.03 -91.76 M-259.02 -65.19 C-257.47 -70.95, -254.7 -78.52, -249.08 -94" stroke="#1e1e1e" stroke-width="1" fill="none"></path></g></g><mask></mask><g stroke-linecap="round" transform="translate(83.35457175118563 546.8932132550649) rotate(0 55.5 21.5)"><path d="M11.66 -1.81 L105.11 1.06 L110.89 6.83 L110.53 37.38 L107.52 38.58 L99.07 41.04 L6.65 41.48 L2.16 36.47 L0.95 9.24 L2.8 2.39 L11.63 1.93" stroke="none" stroke-width="0" fill="#ffffff"></path><path d="M10.75 0 M10.75 0 C43.98 0.44, 72.29 -0.44, 100.25 0 M10.75 0 C39.08 -0.86, 69.27 -0.54, 100.25 0 M100.25 0 C107.85 -1.03, 111.33 3.99, 111 10.75 M100.25 0 C106.38 1.21, 112.66 3.82, 111 10.75 M111 10.75 C109.3 17.27, 110.76 22.02, 111 32.25 M111 10.75 C110.48 15.51, 110.52 19.66, 111 32.25 M111 32.25 C111.41 39.29, 108.95 43.78, 100.25 43 M111 32.25 C108.86 38.12, 107.24 45.12, 100.25 43 M100.25 43 C67.69 43.16, 39.62 41.48, 10.75 43 M100.25 43 C66.48 44.18, 32.31 43.45, 10.75 43 M10.75 43 C3.19 42.91, -0.6 40.87, 0 32.25 M10.75 43 C3.67 45.08, -1.94 40.46, 0 32.25 M0 32.25 C-1.4 25.23, 1.11 15.53, 0 10.75 M0 32.25 C0.98 25.45, -0.89 18.82, 0 10.75 M0 10.75 C0.91 2.55, 2.15 -0.62, 10.75 0 M0 10.75 C-1.49 1.81, 2.65 0.33, 10.75 0" stroke="#1971c2" stroke-width="1" fill="none"></path></g><g transform="translate(105.49460928780672 555.8932132550649) rotate(0 33.359962463378906 12.5)"><text x="33.359962463378906" y="0" font-family="Virgil, Segoe UI Emoji" font-size="20px" fill="#1e1e1e" text-anchor="middle" style="white-space: pre;" direction="ltr" dominant-baseline="text-before-edge">Prompt</text></g><g stroke-linecap="round"><g transform="translate(204.76080417809135 576.9355235133079) rotate(0 158.02289995870768 1.9183888744251192)"><path d="M-0.47 -1.1 C29.97 -0.8, 130.15 2.09, 182.98 2.95 C235.82 3.82, 294.22 3.87, 316.52 4.07 M1.48 0.93 C32.29 1.39, 132.99 0.45, 185.31 1.12 C237.64 1.79, 293.51 4.32, 315.43 4.94" stroke="#1e1e1e" stroke-width="1" fill="none"></path></g><g transform="translate(204.76080417809135 576.9355235133079) rotate(0 158.02289995870768 1.9183888744251192)"><path d="M285.06 13 C296.99 10.28, 303.92 7.68, 314.13 3.4 M287.63 13.57 C293.31 12.41, 301.86 9.65, 315.36 5.31" stroke="#1e1e1e" stroke-width="1" fill="none"></path></g><g transform="translate(204.76080417809135 576.9355235133079) rotate(0 158.02289995870768 1.9183888744251192)"><path d="M285.77 -7.51 C297.67 -3.57, 304.37 0.5, 314.13 3.4 M288.35 -6.94 C293.87 -2.79, 302.24 -0.22, 315.36 5.31" stroke="#1e1e1e" stroke-width="1" fill="none"></path></g></g><mask></mask><g stroke-linecap="round" transform="translate(476.1624254499161 322.1318653651647) rotate(0 342.00000762939453 189.69232559204102)"><path d="M32 0 M32 0 C260.79 2.28, 490 1.9, 652 0 M652 0 C673.78 -0.81, 683.1 10.83, 684 32 M684 32 C681.47 154.53, 682.03 276.8, 684 347.38 M684 347.38 C685.8 366.86, 674.68 380.1, 652 379.38 M652 379.38 C438.79 377.44, 224.99 377.76, 32 379.38 M32 379.38 C11.68 379.57, 1.67 369.1, 0 347.38 M0 347.38 C1.88 249.75, -0.14 153.2, 0 32 M0 32 C-1.32 11.6, 8.74 0.31, 32 0" stroke="#868e96" stroke-width="1.5" fill="none" stroke-dasharray="8 9"></path></g><g stroke-linecap="round" transform="translate(56.93169730050204 299.82416425432484) rotate(0 191.53844833374023 178.15385818481445)"><path d="M32 0 M32 0 C119.39 -1.15, 208.42 -0.97, 351.08 0 M351.08 0 C370.42 1.47, 382.38 11.18, 383.08 32 M383.08 32 C382.04 97.95, 382.61 165.68, 383.08 324.31 M383.08 324.31 C384.99 345.87, 370.8 358.2, 351.08 356.31 M351.08 356.31 C268.91 356.22, 186.54 354.63, 32 356.31 M32 356.31 C8.78 357.36, 0.53 347.09, 0 324.31 M0 324.31 C-1.7 257.22, -3.33 189.21, 0 32 M0 32 C0.71 11.82, 10.53 -1.79, 32 0" stroke="#868e96" stroke-width="1.5" fill="none" stroke-dasharray="8 9"></path></g><g transform="translate(612.7779497419083 671.9779804774694) rotate(0 202.72984313964844 12.5)"><text x="0" y="0" font-family="Virgil, Segoe UI Emoji" font-size="20px" fill="#868e96" text-anchor="start" style="white-space: pre;" direction="ltr" dominant-baseline="text-before-edge">Back-end (Node.js, Express.js, &amp; GridDB)</text></g><g transform="translate(150.1625932965958 627.5164249965123) rotate(0 87.95993041992188 12.5)"><text x="0" y="0" font-family="Virgil, Segoe UI Emoji" font-size="20px" fill="#868e96" text-anchor="start" style="white-space: pre;" direction="ltr" dominant-baseline="text-before-edge">Front-end (React)</text></g><g transform="translate(717.0855821881973 255.67030225481312) rotate(0 47.319969177246094 12.5)"><text x="0" y="0" font-family="Virgil, Segoe UI Emoji" font-size="20px" fill="#1e1e1e" text-anchor="start" style="white-space: pre;" direction="ltr" dominant-baseline="text-before-edge">Chat API</text></g></svg>