<svg version="1.1" xmlns="http://www.w3.org/2000/svg" viewBox="0 0 1164.6154403686523 658.7692260742188" width="1164.6154403686523" height="658.7692260742188">
  <!-- svg-source:excalidraw -->
  
  <defs>
    <style class="style-fonts">
      @font-face {
        font-family: "Virgil";
        src: url("https://excalidraw.com/Virgil.woff2");
      }
      @font-face {
        font-family: "Cascadia";
        src: url("https://excalidraw.com/Cascadia.woff2");
      }
    </style>
    
  </defs>
  <rect x="0" y="0" width="1164.6154403686523" height="658.7692260742188" fill="#ffffff"></rect><g stroke-linecap="round" transform="translate(474.73140716552734 57.30362808704376) rotate(0 86.40000915527344 86.40000915527344)"><path d="M89.27 -0.39 C100.61 -1.52, 113.61 4.51, 123.84 9.81 C134.07 15.12, 143.06 22.7, 150.63 31.44 C158.2 40.18, 165.62 51.3, 169.25 62.24 C172.89 73.18, 173.7 85.49, 172.42 97.07 C171.15 108.64, 167.97 121.42, 161.61 131.7 C155.25 141.98, 144.1 152.1, 134.24 158.75 C124.39 165.4, 113.59 169.39, 102.5 171.61 C91.4 173.83, 79.02 175.07, 67.65 172.08 C56.28 169.08, 43.51 160.93, 34.27 153.63 C25.03 146.34, 18.12 138.4, 12.2 128.31 C6.28 118.23, -0.06 105.16, -1.23 93.12 C-2.4 81.09, 1.09 67.26, 5.19 56.09 C9.28 44.93, 15.36 34.34, 23.36 26.13 C31.36 17.92, 37.45 10.58, 53.17 6.82 C68.89 3.05, 103.66 1.36, 117.7 3.54 C131.74 5.73, 138.5 18.61, 137.41 19.93 M159.54 39.59 C167.43 48.16, 170.63 58.91, 172.82 70.41 C175.01 81.91, 175.42 97.32, 172.66 108.57 C169.91 119.81, 164.14 128.76, 156.3 137.87 C148.45 146.97, 136.49 157.15, 125.58 163.2 C114.67 169.25, 102.38 173.29, 90.85 174.18 C79.33 175.07, 66.59 172.38, 56.44 168.54 C46.28 164.7, 38.09 159.14, 29.92 151.13 C21.74 143.12, 12.23 131.52, 7.39 120.48 C2.54 109.44, 1.09 96.93, 0.84 84.89 C0.59 72.86, 1.05 59.13, 5.89 48.28 C10.73 37.44, 20.78 26.94, 29.86 19.8 C38.93 12.66, 48.62 8.75, 60.35 5.45 C72.07 2.14, 88.47 -1.62, 100.21 -0.04 C111.95 1.54, 120.94 9.02, 130.8 14.93 C140.65 20.85, 155.31 31.11, 159.34 35.45 C163.38 39.78, 156.2 39.96, 155.02 40.94" stroke="none" stroke-width="0" fill="#2f9e44"></path><path d="M103.76 1.77 C114.72 3.2, 128.41 11.44, 138.12 18.3 C147.84 25.17, 156.34 32.89, 162.06 42.95 C167.78 53.01, 171.69 66.67, 172.44 78.66 C173.18 90.64, 170.36 104.07, 166.53 114.87 C162.7 125.67, 157.01 134.84, 149.45 143.48 C141.9 152.12, 131.58 161.81, 121.19 166.74 C110.81 171.67, 99.28 173.43, 87.13 173.07 C74.99 172.7, 59.59 169.39, 48.34 164.55 C37.09 159.7, 27.08 152.49, 19.62 144 C12.16 135.52, 6.69 124.76, 3.58 113.63 C0.47 102.51, -0.65 89.16, 0.94 77.25 C2.52 65.35, 7.05 52.23, 13.07 42.23 C19.09 32.23, 27.72 23.92, 37.08 17.27 C46.45 10.61, 56.44 4.32, 69.26 2.3 C82.08 0.28, 105.05 3.59, 114.02 5.15 C122.98 6.71, 123.73 10.53, 123.05 11.66 M159.85 41.44 C167.94 49.93, 172.43 58.34, 174.24 69.31 C176.04 80.29, 174.02 95.54, 170.68 107.28 C167.33 119.02, 161.97 130.17, 154.16 139.76 C146.36 149.35, 134.73 159.81, 123.83 164.81 C112.92 169.8, 100.47 169.46, 88.73 169.75 C76.98 170.04, 63.66 170.05, 53.37 166.57 C43.07 163.08, 34.41 156.56, 26.95 148.85 C19.5 141.15, 12.64 131.64, 8.65 120.34 C4.65 109.04, 2.49 92.93, 2.98 81.04 C3.46 69.15, 6.85 58.85, 11.56 48.99 C16.26 39.14, 22.38 29.27, 31.22 21.91 C40.06 14.56, 52.95 8.16, 64.61 4.85 C76.26 1.53, 89.53 0.32, 101.15 2.01 C112.76 3.7, 124.34 8.43, 134.32 14.98 C144.3 21.53, 157.69 36.95, 161.05 41.31 C164.4 45.67, 155.78 40.28, 154.43 41.14" stroke="#e03131" stroke-width="1" fill="none"></path></g><g transform="translate(520.5156478881836 128.19593155384064) rotate(0 39.059974670410156 12.5)"><text x="0" y="0" font-family="Virgil, Segoe UI Emoji" font-size="20px" fill="#ffffff" text-anchor="start" style="white-space: pre;" direction="ltr" dominant-baseline="text-before-edge">OPENAI</text></g><g stroke-linecap="round" transform="translate(436.3315658569336 406.5959712266922) rotate(0 124.80001831054688 56.12309265136719)"><path d="M24.94 0.9 L223.59 -0.74 L230.18 0.98 L245.53 13.08 L249.6 18.82 L249.58 84.28 L244.54 97.64 L238.01 104.99 L223.12 114.07 L32.02 112.8 L12.22 109.96 L3.52 106.67 L-0.1 94.21 L1.09 23.73 L8.74 7.22 L16.69 4.74 L27.26 1.33" stroke="none" stroke-width="0" fill="#ffec99"></path><path d="M28.06 0 M28.06 0 C83.2 -4.46, 129.25 3.27, 221.54 0 M28.06 0 C71.27 0.01, 109.01 -1.29, 221.54 0 M221.54 0 C239.1 0.29, 248.91 6.19, 249.6 28.06 M221.54 0 C242.88 -4.35, 245.16 5.26, 249.6 28.06 M249.6 28.06 C253.62 46.72, 253.9 57.07, 249.6 84.18 M249.6 28.06 C251.57 50.23, 251.22 72.06, 249.6 84.18 M249.6 84.18 C250.99 104.76, 242.09 115.63, 221.54 112.25 M249.6 84.18 C253.44 98.85, 242.37 114.8, 221.54 112.25 M221.54 112.25 C144.87 111.84, 71.91 114.88, 28.06 112.25 M221.54 112.25 C166.22 116.64, 113.51 115.93, 28.06 112.25 M28.06 112.25 C9.99 111.7, 2.73 103.78, 0 84.18 M28.06 112.25 C6.2 115.32, 0.04 103.63, 0 84.18 M0 84.18 C-3.93 67.42, -0.12 41.33, 0 28.06 M0 84.18 C-0.33 67.41, -0.05 52.84, 0 28.06 M0 28.06 C3.62 6.07, 5.64 -0.66, 28.06 0 M0 28.06 C-4.15 5.18, 13.8 -2.16, 28.06 0" stroke="#f08c00" stroke-width="1" fill="none"></path></g><g stroke-linecap="round" transform="translate(878.6692733764648 294.34977066516876) rotate(0 78.64617919921875 112.98462677001953)"><path d="M31.26 -3.64 L132.02 0.37 L146.92 4.94 L150.13 12.47 L157.39 28.7 L158.47 193.34 L151.99 209.55 L146.61 225.43 L125.85 222.41 L31.47 222.47 L19.44 223.43 L7.94 214.12 L2.25 195.7 L0.71 25.41 L10.98 7.2 L19.33 0.67 L32.79 0.71" stroke="none" stroke-width="0" fill="#1971c2"></path><path d="M32 0 M32 0 C72.11 -2.46, 101.01 2.75, 125.29 0 M32 0 C68.62 1.25, 104.5 1.48, 125.29 0 M125.29 0 C143.47 2.29, 153.51 6.81, 157.29 32 M125.29 0 C142.53 -1.11, 159.12 12.05, 157.29 32 M157.29 32 C157.89 98.28, 161.52 157.68, 157.29 193.97 M157.29 32 C159.82 93.45, 159.51 154.42, 157.29 193.97 M157.29 193.97 C160.67 218.65, 143.11 227.81, 125.29 225.97 M157.29 193.97 C159.85 219.75, 145.42 226.83, 125.29 225.97 M125.29 225.97 C99 226.96, 70 230.87, 32 225.97 M125.29 225.97 C103.83 226.39, 80.68 227.43, 32 225.97 M32 225.97 C11.55 223.22, 2.68 215.33, 0 193.97 M32 225.97 C11.41 228.48, 3.65 215.75, 0 193.97 M0 193.97 C-5.59 156.91, -1.85 117.86, 0 32 M0 193.97 C1.8 148.27, 0.04 97.1, 0 32 M0 32 C-0.66 7.06, 7.03 3.86, 32 0 M0 32 C-2.16 9.15, 13.85 3.58, 32 0" stroke="#1971c2" stroke-width="1" fill="none"></path></g><g transform="translate(920.0235214233398 391.8265925645828) rotate(0 35.139976501464844 12.5)"><text x="0" y="0" font-family="Virgil, Segoe UI Emoji" font-size="20px" fill="#ffffff" text-anchor="start" style="white-space: pre;" direction="ltr" dominant-baseline="text-before-edge">GridDB</text></g><g stroke-linecap="round"><g transform="translate(704.3927230834962 442.79943706992617) rotate(0 79.7472940160846 0.19754826402936487)"><path d="M0.69 0.88 C12.16 1.26, 42.89 2.04, 69.42 1.66 C95.96 1.29, 144.71 -0.85, 159.9 -1.37 M-0.4 0.29 C10.85 0.41, 41.86 0.09, 68.48 0.04 C95.1 -0.02, 144.47 0.03, 159.34 -0.03" stroke="#1e1e1e" stroke-width="1" fill="none"></path></g><g transform="translate(704.3927230834962 442.79943706992617) rotate(0 79.7472940160846 0.19754826402936487)"><path d="M132.62 10.28 C142.7 7.13, 151.11 4.61, 159.32 0.76 M130.73 11.12 C141.47 6.4, 153.3 1.66, 159.48 0.9" stroke="#1e1e1e" stroke-width="1" fill="none"></path></g><g transform="translate(704.3927230834962 442.79943706992617) rotate(0 79.7472940160846 0.19754826402936487)"><path d="M132.59 -10.24 C142.58 -6.17, 150.99 -1.47, 159.32 0.76 M130.7 -9.4 C141.57 -6.35, 153.41 -3.31, 159.48 0.9" stroke="#1e1e1e" stroke-width="1" fill="none"></path></g></g><mask></mask><g stroke-linecap="round"><g transform="translate(862.6079025268555 473.3304903007572) rotate(0 -81.43887255564312 1.0044912575665137)"><path d="M-0.06 0.4 C-12.33 0.54, -47.43 1.39, -74.55 1.62 C-101.68 1.86, -148.12 1.73, -162.82 1.82 M-1.55 -0.43 C-13.88 -0.69, -48.9 -0.49, -75.39 0.01 C-101.88 0.51, -145.89 2.08, -160.49 2.55" stroke="#1e1e1e" stroke-width="1" fill="none"></path></g><g transform="translate(862.6079025268555 473.3304903007572) rotate(0 -81.43887255564312 1.0044912575665137)"><path d="M-131.99 -8.29 C-137.09 -8.02, -146.69 -5.44, -161.77 1.6 M-132.59 -8.16 C-144.06 -5.1, -152.66 0.62, -160.83 2.3" stroke="#1e1e1e" stroke-width="1" fill="none"></path></g><g transform="translate(862.6079025268555 473.3304903007572) rotate(0 -81.43887255564312 1.0044912575665137)"><path d="M-131.31 12.22 C-136.69 7.98, -146.44 6.05, -161.77 1.6 M-131.9 12.35 C-143.53 7.75, -152.39 5.82, -160.83 2.3" stroke="#1e1e1e" stroke-width="1" fill="none"></path></g></g><mask></mask><g transform="translate(505.0079574584961 447.2112056016922) rotate(0 34.5899658203125 12.5)"><text x="0" y="0" font-family="Virgil, Segoe UI Emoji" font-size="20px" fill="#1e1e1e" text-anchor="start" style="white-space: pre;" direction="ltr" dominant-baseline="text-before-edge">Node.js</text></g><g stroke-linecap="round"><g transform="translate(558.73195978471 396.2574092149735) rotate(0 -0.005720796405682904 -76.45007121161719)"><path d="M-0.47 0.39 C-0.74 -25.26, -0.85 -127.85, -1 -153.29 M1.48 -0.45 C1.08 -25.94, -0.93 -126.12, -1.49 -151.72" stroke="#1e1e1e" stroke-width="1" fill="none"></path></g><g transform="translate(558.73195978471 396.2574092149735) rotate(0 -0.005720796405682904 -76.45007121161719)"><path d="M10 -122.3 C5.53 -132.73, 3.45 -144.65, 0.49 -152.11 M9.32 -124.56 C6.03 -134.78, 0.84 -143.6, -1.06 -152.04" stroke="#1e1e1e" stroke-width="1" fill="none"></path></g><g transform="translate(558.73195978471 396.2574092149735) rotate(0 -0.005720796405682904 -76.45007121161719)"><path d="M-10.52 -121.87 C-7.81 -132.37, -2.71 -144.44, 0.49 -152.11 M-11.2 -124.13 C-6.83 -134.58, -4.38 -143.55, -1.06 -152.04" stroke="#1e1e1e" stroke-width="1" fill="none"></path></g></g><mask></mask><g stroke-linecap="round"><g transform="translate(586.5054141214544 249.01997840288095) rotate(0 -0.34148507884560786 75.21165521575604)"><path d="M-0.91 -0.58 C-1 24.72, -0.43 125.91, -0.39 151 M0.81 1.73 C0.53 26.77, -1.07 124.41, -1.49 149.31" stroke="#1e1e1e" stroke-width="1" fill="none"></path></g><g transform="translate(586.5054141214544 249.01997840288095) rotate(0 -0.34148507884560786 75.21165521575604)"><path d="M-12.25 120.46 C-7.09 128.89, -5.8 138.2, -1.29 150.32 M-11.58 120.86 C-6.93 130.69, -3.44 141.38, -2.3 148.43" stroke="#1e1e1e" stroke-width="1" fill="none"></path></g><g transform="translate(586.5054141214544 249.01997840288095) rotate(0 -0.34148507884560786 75.21165521575604)"><path d="M8.27 120.8 C7.07 128.97, 1.99 138.17, -1.29 150.32 M8.94 121.2 C6.33 130.79, 2.58 141.36, -2.3 148.43" stroke="#1e1e1e" stroke-width="1" fill="none"></path></g></g><mask></mask><g stroke-linecap="round" transform="translate(162.2848892211914 228.30350601673126) rotate(0 120.5 58.5)"><path d="M29.12 2.12 L212.19 -2.66 L229.55 4.21 L233.58 12.6 L239.92 19.09 L242.59 89.57 L240.85 106.13 L226.01 112.35 L208.26 118.44 L28.71 120.44 L12.07 115.14 L5.84 105.78 L1.36 97.59 L-0.34 23.72 L2.79 12.21 L12.13 7.62 L25.47 -2.08" stroke="none" stroke-width="0" fill="#a5d8ff"></path><path d="M29.25 0 M29.25 0 C103.8 6.54, 178.26 -0.89, 211.75 0 M29.25 0 C87.65 -1.84, 147.87 -2.15, 211.75 0 M211.75 0 C227.39 -3.56, 240.04 11.34, 241 29.25 M211.75 0 C232.64 4.11, 244.65 14.18, 241 29.25 M241 29.25 C241.53 46.92, 243.53 60.9, 241 87.75 M241 29.25 C242.33 52.13, 243.08 69.86, 241 87.75 M241 87.75 C242.84 109.47, 235.12 115.95, 211.75 117 M241 87.75 C241.86 107.35, 229.95 121.48, 211.75 117 M211.75 117 C151.4 115.51, 87.69 118.22, 29.25 117 M211.75 117 C151.94 116.95, 88.02 117.84, 29.25 117 M29.25 117 C9.78 117.64, 2.19 110.42, 0 87.75 M29.25 117 C10.2 113.5, 3.61 108.14, 0 87.75 M0 87.75 C-3.34 74.39, -1.85 61.85, 0 29.25 M0 87.75 C-2.92 69.55, -2.86 50.19, 0 29.25 M0 29.25 C3.86 7.87, 8.43 2.76, 29.25 0 M0 29.25 C3.58 12.07, 9.76 3.36, 29.25 0" stroke="#1e1e1e" stroke-width="1" fill="none"></path></g><g transform="translate(169.70497131347656 261.80350601673126) rotate(0 113.07991790771484 25)"><text x="113.07991790771484" y="0" font-family="Virgil, Segoe UI Emoji" font-size="20px" fill="#1e1e1e" text-anchor="middle" style="white-space: pre;" direction="ltr" dominant-baseline="text-before-edge">OpenAI Tokens Usage </text><text x="113.07991790771484" y="25" font-family="Virgil, Segoe UI Emoji" font-size="20px" fill="#1e1e1e" text-anchor="middle" style="white-space: pre;" direction="ltr" dominant-baseline="text-before-edge">Dashboard</text></g><g stroke-linecap="round"><g transform="translate(430.4231491088867 446.3555240332498) rotate(0 -68.20882040143846 -44.03031121959782)"><path d="M1 1.05 C-19.54 -0.08, -99.74 9.09, -122.39 -6.01 C-145.04 -21.12, -132.95 -75.42, -134.9 -89.59 M0.06 0.56 C-20.69 -0.52, -100.58 10.34, -123.24 -4.98 C-145.9 -20.3, -134.16 -77.17, -135.9 -91.36" stroke="#1e1e1e" stroke-width="1" fill="none"></path></g><g transform="translate(430.4231491088867 446.3555240332498) rotate(0 -68.20882040143846 -44.03031121959782)"><path d="M-124.89 -62.49 C-131.87 -74.1, -131.88 -83.37, -136.46 -89.71 M-126.14 -62.49 C-129.19 -68.26, -131.03 -75.97, -136.51 -91.95" stroke="#1e1e1e" stroke-width="1" fill="none"></path></g><g transform="translate(430.4231491088867 446.3555240332498) rotate(0 -68.20882040143846 -44.03031121959782)"><path d="M-145.4 -63.22 C-144.74 -74.72, -137.13 -83.73, -136.46 -89.71 M-146.65 -63.22 C-145.05 -68.97, -142.24 -76.52, -136.51 -91.95" stroke="#1e1e1e" stroke-width="1" fill="none"></path></g></g><mask></mask><g stroke-linecap="round" transform="translate(57.500144958496094 450.16504776477814) rotate(0 55.5 21.5)"><path d="M11.66 -1.81 L105.11 1.06 L110.89 6.83 L110.53 37.38 L107.52 38.58 L99.07 41.04 L6.65 41.48 L2.16 36.47 L0.95 9.24 L2.8 2.39 L11.63 1.93" stroke="none" stroke-width="0" fill="#ffffff"></path><path d="M10.75 0 M10.75 0 C43.98 0.44, 72.29 -0.44, 100.25 0 M10.75 0 C39.08 -0.86, 69.27 -0.54, 100.25 0 M100.25 0 C107.85 -1.03, 111.33 3.99, 111 10.75 M100.25 0 C106.38 1.21, 112.66 3.82, 111 10.75 M111 10.75 C109.3 17.27, 110.76 22.02, 111 32.25 M111 10.75 C110.48 15.51, 110.52 19.66, 111 32.25 M111 32.25 C111.41 39.29, 108.95 43.78, 100.25 43 M111 32.25 C108.86 38.12, 107.24 45.12, 100.25 43 M100.25 43 C67.69 43.16, 39.62 41.48, 10.75 43 M100.25 43 C66.48 44.18, 32.31 43.45, 10.75 43 M10.75 43 C3.19 42.91, -0.6 40.87, 0 32.25 M10.75 43 C3.67 45.08, -1.94 40.46, 0 32.25 M0 32.25 C-1.4 25.23, 1.11 15.53, 0 10.75 M0 32.25 C0.98 25.45, -0.89 18.82, 0 10.75 M0 10.75 C0.91 2.55, 2.15 -0.62, 10.75 0 M0 10.75 C-1.49 1.81, 2.65 0.33, 10.75 0" stroke="#1971c2" stroke-width="1" fill="none"></path></g><g transform="translate(79.64018249511719 459.16504776477814) rotate(0 33.359962463378906 12.5)"><text x="33.359962463378906" y="0" font-family="Virgil, Segoe UI Emoji" font-size="20px" fill="#1e1e1e" text-anchor="middle" style="white-space: pre;" direction="ltr" dominant-baseline="text-before-edge">Prompt</text></g><g stroke-linecap="round"><g transform="translate(185.36797864272603 476.51507439265004) rotate(0 113.71521029195964 0.24503506866111024)"><path d="M-0.47 -1.1 C15.51 -0.95, 58.15 2.1, 96.21 2.03 C134.28 1.96, 205.91 -0.96, 227.9 -1.54 M1.48 0.93 C17.83 1.23, 60.99 0.46, 98.55 0.2 C136.1 -0.07, 205.2 -0.52, 226.81 -0.68" stroke="#1e1e1e" stroke-width="1" fill="none"></path></g><g transform="translate(185.36797864272603 476.51507439265004) rotate(0 113.71521029195964 0.24503506866111024)"><path d="M196.86 8.57 C208.64 5.46, 215.44 2.48, 225.52 -2.22 M199.43 9.14 C205 7.67, 213.44 4.61, 226.74 -0.31" stroke="#1e1e1e" stroke-width="1" fill="none"></path></g><g transform="translate(185.36797864272603 476.51507439265004) rotate(0 113.71521029195964 0.24503506866111024)"><path d="M196.71 -11.95 C208.74 -8.39, 215.58 -4.7, 225.52 -2.22 M199.29 -11.38 C204.93 -7.53, 213.4 -5.27, 226.74 -0.31" stroke="#1e1e1e" stroke-width="1" fill="none"></path></g></g><mask></mask><g stroke-linecap="round" transform="translate(10 10) rotate(0 572.3077201843262 319.3846130371094)"><path d="M32 0 M32 0 C265.04 0.78, 498.88 1.73, 1112.62 0 M32 0 C445.4 3.78, 859.47 4.44, 1112.62 0 M1112.62 0 C1132.41 -0.68, 1143.09 12.21, 1144.62 32 M1112.62 0 C1134.37 -1.45, 1145.78 12.57, 1144.62 32 M1144.62 32 C1145.01 154.76, 1145.06 279.7, 1144.62 606.77 M1144.62 32 C1142.77 203.2, 1142.8 375.23, 1144.62 606.77 M1144.62 606.77 C1144.45 626.92, 1134.91 637.15, 1112.62 638.77 M1144.62 606.77 C1146.49 630.07, 1136.11 640.72, 1112.62 638.77 M1112.62 638.77 C725.45 641.2, 340.01 641.97, 32 638.77 M1112.62 638.77 C827.18 641.62, 542.27 641.81, 32 638.77 M32 638.77 C11.12 640.61, -0.52 627.29, 0 606.77 M32 638.77 C12.13 638.74, -0.97 627.08, 0 606.77 M0 606.77 C-1.22 426.75, -1.37 245.88, 0 32 M0 606.77 C-0.31 396.13, -0.46 185.52, 0 32 M0 32 C1.33 9.69, 11.73 -0.61, 32 0 M0 32 C-0.33 11.12, 8.41 -1.37, 32 0" stroke="#f8f9fa" stroke-width="4" fill="none"></path></g></svg>